<svg xmlns="http://www.w3.org/2000/svg" xmlns:xlink="http://www.w3.org/1999/xlink" width="840" height="190.26"><rect width="840" height="190.26" rx="5" ry="5" class="a"></rect><svg y="0%" x="0%"><circle cx="20" cy="20" r="6" class="b"></circle><circle cx="40" cy="20" r="6" class="c"></circle><circle cx="60" cy="20" r="6" class="d"></circle></svg><svg height="130.26" viewBox="0 0 80 13.026" width="800" x="15" xmlns="http://www.w3.org/2000/svg" xmlns:xlink="http://www.w3.org/1999/xlink" y="50"><style>.a{fill:rgb(40,45,53)}.b{fill:#ff5f58}.c{fill:#ffbd2e}.d{fill:#18c132}.e{font-family:'Fira Code',Monaco,Consolas,Menlo,'Bitstream Vera Sans Mono','Powerline Symbols',monospace}.f{fill:rgb(185,192,203);white-space:pre}.g{fill:rgb(113,190,242);white-space:pre}.h{fill:rgb(185,192,203);font-weight:bold;text-decoration:underline;white-space:pre}.i{fill:transparent}.j{fill:rgb(111,118,131)}.l{animation-duration:12.0906233787537s;animation-iteration-count:infinite;animation-name:k;animation-timing-function:steps(1,end)}@keyframes k{0%{transform:translateX(-0px)}0%{transform:translateX(-80px)}0.6%{transform:translateX(-160px)}1.2%{transform:translateX(-240px)}1.6%{transform:translateX(-320px)}1.9%{transform:translateX(-400px)}2.4%{transform:translateX(-480px)}3%{transform:translateX(-560px)}3.4%{transform:translateX(-640px)}3.8%{transform:translateX(-720px)}4.1%{transform:translateX(-800px)}4.4%{transform:translateX(-880px)}4.8%{transform:translateX(-960px)}5%{transform:translateX(-1040px)}5.3%{transform:translateX(-1120px)}5.8%{transform:translateX(-1200px)}6%{transform:translateX(-1280px)}6.5%{transform:translateX(-1360px)}6.8%{transform:translateX(-1440px)}7.1%{transform:translateX(-1520px)}7.7%{transform:translateX(-1600px)}8.1%{transform:translateX(-1680px)}8.5%{transform:translateX(-1760px)}9%{transform:translateX(-1840px)}9.4%{transform:translateX(-1920px)}9.9%{transform:translateX(-2000px)}10.4%{transform:translateX(-2080px)}10.8%{transform:translateX(-2160px)}11.4%{transform:translateX(-2240px)}11.9%{transform:translateX(-2320px)}12.3%{transform:translateX(-2400px)}12.7%{transform:translateX(-2480px)}13.3%{transform:translateX(-2560px)}13.8%{transform:translateX(-2640px)}14.4%{transform:translateX(-2720px)}14.8%{transform:translateX(-2800px)}15.3%{transform:translateX(-2880px)}15.7%{transform:translateX(-2960px)}16%{transform:translateX(-3040px)}16.5%{transform:translateX(-3120px)}17%{transform:translateX(-3200px)}17.6%{transform:translateX(-3280px)}18%{transform:translateX(-3360px)}18.4%{transform:translateX(-3440px)}18.9%{transform:translateX(-3520px)}19.3%{transform:translateX(-3600px)}19.9%{transform:translateX(-3680px)}20.5%{transform:translateX(-3760px)}21%{transform:translateX(-3840px)}21.2%{transform:translateX(-3920px)}21.9%{transform:translateX(-4000px)}22.2%{transform:translateX(-4080px)}22.8%{transform:translateX(-4160px)}23.1%{transform:translateX(-4240px)}23.5%{transform:translateX(-4320px)}23.8%{transform:translateX(-4400px)}24.3%{transform:translateX(-4480px)}24.9%{transform:translateX(-4560px)}25.3%{transform:translateX(-4640px)}25.8%{transform:translateX(-4720px)}26.2%{transform:translateX(-4800px)}26.8%{transform:translateX(-4880px)}27.3%{transform:translateX(-4960px)}27.8%{transform:translateX(-5040px)}28.2%{transform:translateX(-5120px)}28.6%{transform:translateX(-5200px)}29.2%{transform:translateX(-5280px)}29.8%{transform:translateX(-5360px)}30.1%{transform:translateX(-5440px)}30.4%{transform:translateX(-5520px)}30.8%{transform:translateX(-5600px)}31.2%{transform:translateX(-5680px)}31.7%{transform:translateX(-5760px)}40%{transform:translateX(-5840px)}40.5%{transform:translateX(-5920px)}41.1%{transform:translateX(-6000px)}41.5%{transform:translateX(-6080px)}41.8%{transform:translateX(-6160px)}42.3%{transform:translateX(-6240px)}42.6%{transform:translateX(-6320px)}43.2%{transform:translateX(-6400px)}43.7%{transform:translateX(-6480px)}44.3%{transform:translateX(-6560px)}44.9%{transform:translateX(-6640px)}45.4%{transform:translateX(-6720px)}45.8%{transform:translateX(-6800px)}46.1%{transform:translateX(-6880px)}46.7%{transform:translateX(-6960px)}47.2%{transform:translateX(-7040px)}47.7%{transform:translateX(-7120px)}48%{transform:translateX(-7200px)}48.3%{transform:translateX(-7280px)}48.9%{transform:translateX(-7360px)}49.2%{transform:translateX(-7440px)}49.7%{transform:translateX(-7520px)}50%{transform:translateX(-7600px)}50.4%{transform:translateX(-7680px)}50.7%{transform:translateX(-7760px)}58.4%{transform:translateX(-7840px)}58.5%{transform:translateX(-7920px)}100%{transform:translateX(-8000px)}}</style><g font-family="&#x27;Fira Code&#x27;,Monaco,Consolas,Menlo,&#x27;Bitstream Vera Sans Mono&#x27;,&#x27;Powerline Symbols&#x27;,monospace" font-size="1.67" class="e"><defs><symbol id="1"><text x="0" y="1.67" class="f">#</text></symbol><symbol id="2"><text x="0" y="1.67" class="f">#</text><text x="2.004" y="1.67" class="f">For</text></symbol><symbol id="3"><text x="0" y="1.67" class="f">#</text><text x="2.004" y="1.67" class="f">For</text><text x="6.012" y="1.67" class="f">example,</text></symbol><symbol id="4"><text x="0" y="1.67" class="f">#</text><text x="2.004" y="1.67" class="f">For</text><text x="6.012" y="1.67" class="f">example,</text><text x="15.029999999999998" y="1.67" class="f">to</text></symbol><symbol id="5"><text x="0" y="1.67" class="f">#</text><text x="2.004" y="1.67" class="f">For</text><text x="6.012" y="1.67" class="f">example,</text><text x="15.029999999999998" y="1.67" class="f">to</text><text x="18.035999999999998" y="1.67" class="f">relink</text></symbol><symbol id="6"><text x="0" y="1.67" class="f">#</text><text x="2.004" y="1.67" class="f">For</text><text x="6.012" y="1.67" class="f">example,</text><text x="15.029999999999998" y="1.67" class="f">to</text><text x="18.035999999999998" y="1.67" class="f">relink</text><text x="25.05" y="1.67" class="f">the</text></symbol><symbol id="7"><text x="0" y="1.67" class="f">#</text><text x="2.004" y="1.67" class="f">For</text><text x="6.012" y="1.67" class="f">example,</text><text x="15.029999999999998" y="1.67" class="f">to</text><text x="18.035999999999998" y="1.67" class="f">relink</text><text x="25.05" y="1.67" class="f">the</text><text x="29.058" y="1.67" class="f">OpenBLAS</text></symbol><symbol id="8"><text x="0" y="1.67" class="f">#</text><text x="2.004" y="1.67" class="f">For</text><text x="6.012" y="1.67" class="f">example,</text><text x="15.029999999999998" y="1.67" class="f">to</text><text x="18.035999999999998" y="1.67" class="f">relink</text><text x="25.05" y="1.67" class="f">the</text><text x="29.058" y="1.67" class="f">OpenBLAS</text><text x="38.07599999999999" y="1.67" class="f">library</text></symbol><symbol id="9"><text x="0" y="1.67" class="f">#</text><text x="2.004" y="1.67" class="f">For</text><text x="6.012" y="1.67" class="f">example,</text><text x="15.029999999999998" y="1.67" class="f">to</text><text x="18.035999999999998" y="1.67" class="f">relink</text><text x="25.05" y="1.67" class="f">the</text><text x="29.058" y="1.67" class="f">OpenBLAS</text><text x="38.07599999999999" y="1.67" class="f">library</text><text x="46.09199999999999" y="1.67" class="f">with</text></symbol><symbol id="10"><text x="0" y="1.67" class="f">#</text><text x="2.004" y="1.67" class="f">For</text><text x="6.012" y="1.67" class="f">example,</text><text x="15.029999999999998" y="1.67" class="f">to</text><text x="18.035999999999998" y="1.67" class="f">relink</text><text x="25.05" y="1.67" class="f">the</text><text x="29.058" y="1.67" class="f">OpenBLAS</text><text x="38.07599999999999" y="1.67" class="f">library</text><text x="46.09199999999999" y="1.67" class="f">with</text><text x="51.102" y="1.67" class="f">the</text></symbol><symbol id="11"><text x="0" y="1.67" class="f">#</text><text x="2.004" y="1.67" class="f">For</text><text x="6.012" y="1.67" class="f">example,</text><text x="15.029999999999998" y="1.67" class="f">to</text><text x="18.035999999999998" y="1.67" class="f">relink</text><text x="25.05" y="1.67" class="f">the</text><text x="29.058" y="1.67" class="f">OpenBLAS</text><text x="38.07599999999999" y="1.67" class="f">library</text><text x="46.09199999999999" y="1.67" class="f">with</text><text x="51.102" y="1.67" class="f">the</text><text x="55.10999999999999" y="1.67" class="f">R</text></symbol><symbol id="12"><text x="0" y="1.67" class="f">#</text><text x="2.004" y="1.67" class="f">For</text><text x="6.012" y="1.67" class="f">example,</text><text x="15.029999999999998" y="1.67" class="f">to</text><text x="18.035999999999998" y="1.67" class="f">relink</text><text x="25.05" y="1.67" class="f">the</text><text x="29.058" y="1.67" class="f">OpenBLAS</text><text x="38.07599999999999" y="1.67" class="f">library</text><text x="46.09199999999999" y="1.67" class="f">with</text><text x="51.102" y="1.67" class="f">the</text><text x="55.10999999999999" y="1.67" class="f">R</text><text x="57.114" y="1.67" class="f">language,</text></symbol><symbol id="13"><text x="0" y="1.67" class="f">#</text><text x="2.004" y="1.67" class="f">For</text><text x="6.012" y="1.67" class="f">example,</text><text x="15.029999999999998" y="1.67" class="f">to</text><text x="18.035999999999998" y="1.67" class="f">relink</text><text x="25.05" y="1.67" class="f">the</text><text x="29.058" y="1.67" class="f">OpenBLAS</text><text x="38.07599999999999" y="1.67" class="f">library</text><text x="46.09199999999999" y="1.67" class="f">with</text><text x="51.102" y="1.67" class="f">the</text><text x="55.10999999999999" y="1.67" class="f">R</text><text x="57.114" y="1.67" class="f">language,</text><text x="67.134" y="1.67" class="f">do:</text></symbol><symbol id="14"><text x="0" y="1.67" class="f">&gt;</text></symbol><symbol id="15"><text x="0" y="1.67" class="f">&gt;</text><text x="2.004" y="1.67" class="f">ropenblas::link_again()</text></symbol><symbol id="16"><text x="0" y="1.67" class="g">●</text><text x="2.004" y="1.67" class="f">Linking</text><text x="10.02" y="1.67" class="f">again</text><text x="16.032" y="1.67" class="f">is</text><text x="19.037999999999997" y="1.67" class="f">not</text><text x="23.045999999999996" y="1.67" class="f">necessary.</text><text x="34.068" y="1.67" class="h">R</text><text x="36.071999999999996" y="1.67" class="f">already</text><text x="44.087999999999994" y="1.67" class="f">uses</text><text x="49.098" y="1.67" class="f">the</text><text x="53.105999999999995" y="1.67" class="h">OpenBLAS</text><text x="62.123999999999995" y="1.67" class="f">library.</text><text x="71.142" y="1.67" class="f">You</text><text x="75.14999999999999" y="1.67" class="f">can</text><text x="79.158" y="1.67" class="f">s</text></symbol><symbol id="17"><text x="0" y="1.67" class="f">tay</text><text x="4.008" y="1.67" class="f">calm.</text></symbol><symbol id="a"><rect height="7" width="80" x="0" y="0" class="i"></rect></symbol><symbol id="b"><rect height="2.171" width="1.1022" class="j"></rect></symbol></defs><rect height="13.026" width="80" class="a"></rect><g class="l"><svg x="0" y="0" width="8080"><svg x="0"><use xlink:href="#a"></use><use xlink:href="#b" x="-0.0040000000000000036" y="0"></use></svg><svg x="80"><use xlink:href="#a"></use><use xlink:href="#b" x="0.996" y="0"></use><use xlink:href="#1" y="0"></use></svg><svg x="160"><use xlink:href="#a"></use><use xlink:href="#b" x="1.996" y="0"></use><use xlink:href="#1" y="0"></use></svg><svg x="240"><use xlink:href="#a"></use><use xlink:href="#b" x="2.996" y="0"></use><text x="0" y="1.67" class="f">#</text><text x="2.004" y="1.67" class="f">F</text></svg><svg x="320"><use xlink:href="#a"></use><use xlink:href="#b" x="3.996" y="0"></use><text x="0" y="1.67" class="f">#</text><text x="2.004" y="1.67" class="f">Fo</text></svg><svg x="400"><use xlink:href="#a"></use><use xlink:href="#b" x="4.996" y="0"></use><use xlink:href="#2" y="0"></use></svg><svg x="480"><use xlink:href="#a"></use><use xlink:href="#b" x="5.996" y="0"></use><use xlink:href="#2" y="0"></use></svg><svg x="560"><use xlink:href="#a"></use><use xlink:href="#b" x="6.996" y="0"></use><text x="0" y="1.67" class="f">#</text><text x="2.004" y="1.67" class="f">For</text><text x="6.012" y="1.67" class="f">e</text></svg><svg x="640"><use xlink:href="#a"></use><use xlink:href="#b" x="7.996" y="0"></use><text x="0" y="1.67" class="f">#</text><text x="2.004" y="1.67" class="f">For</text><text x="6.012" y="1.67" class="f">ex</text></svg><svg x="720"><use xlink:href="#a"></use><use xlink:href="#b" x="8.996" y="0"></use><text x="0" y="1.67" class="f">#</text><text x="2.004" y="1.67" class="f">For</text><text x="6.012" y="1.67" class="f">exa</text></svg><svg x="800"><use xlink:href="#a"></use><use xlink:href="#b" x="9.996" y="0"></use><text x="0" y="1.67" class="f">#</text><text x="2.004" y="1.67" class="f">For</text><text x="6.012" y="1.67" class="f">exam</text></svg><svg x="880"><use xlink:href="#a"></use><use xlink:href="#b" x="10.996" y="0"></use><text x="0" y="1.67" class="f">#</text><text x="2.004" y="1.67" class="f">For</text><text x="6.012" y="1.67" class="f">examp</text></svg><svg x="960"><use xlink:href="#a"></use><use xlink:href="#b" x="11.996" y="0"></use><text x="0" y="1.67" class="f">#</text><text x="2.004" y="1.67" class="f">For</text><text x="6.012" y="1.67" class="f">exampl</text></svg><svg x="1040"><use xlink:href="#a"></use><use xlink:href="#b" x="12.996" y="0"></use><text x="0" y="1.67" class="f">#</text><text x="2.004" y="1.67" class="f">For</text><text x="6.012" y="1.67" class="f">example</text></svg><svg x="1120"><use xlink:href="#a"></use><use xlink:href="#b" x="13.996" y="0"></use><use xlink:href="#3" y="0"></use></svg><svg x="1200"><use xlink:href="#a"></use><use xlink:href="#b" x="14.996" y="0"></use><use xlink:href="#3" y="0"></use></svg><svg x="1280"><use xlink:href="#a"></use><use xlink:href="#b" x="15.996" y="0"></use><text x="0" y="1.67" class="f">#</text><text x="2.004" y="1.67" class="f">For</text><text x="6.012" y="1.67" class="f">example,</text><text x="15.029999999999998" y="1.67" class="f">t</text></svg><svg x="1360"><use xlink:href="#a"></use><use xlink:href="#b" x="16.996" y="0"></use><use xlink:href="#4" y="0"></use></svg><svg x="1440"><use xlink:href="#a"></use><use xlink:href="#b" x="17.996" y="0"></use><use xlink:href="#4" y="0"></use></svg><svg x="1520"><use xlink:href="#a"></use><use xlink:href="#b" x="18.996" y="0"></use><text x="0" y="1.67" class="f">#</text><text x="2.004" y="1.67" class="f">For</text><text x="6.012" y="1.67" class="f">example,</text><text x="15.029999999999998" y="1.67" class="f">to</text><text x="18.035999999999998" y="1.67" class="f">r</text></svg><svg x="1600"><use xlink:href="#a"></use><use xlink:href="#b" x="19.996" y="0"></use><text x="0" y="1.67" class="f">#</text><text x="2.004" y="1.67" class="f">For</text><text x="6.012" y="1.67" class="f">example,</text><text x="15.029999999999998" y="1.67" class="f">to</text><text x="18.035999999999998" y="1.67" class="f">re</text></svg><svg x="1680"><use xlink:href="#a"></use><use xlink:href="#b" x="20.996" y="0"></use><text x="0" y="1.67" class="f">#</text><text x="2.004" y="1.67" class="f">For</text><text x="6.012" y="1.67" class="f">example,</text><text x="15.029999999999998" y="1.67" class="f">to</text><text x="18.035999999999998" y="1.67" class="f">rel</text></svg><svg x="1760"><use xlink:href="#a"></use><use xlink:href="#b" x="21.996" y="0"></use><text x="0" y="1.67" class="f">#</text><text x="2.004" y="1.67" class="f">For</text><text x="6.012" y="1.67" class="f">example,</text><text x="15.029999999999998" y="1.67" class="f">to</text><text x="18.035999999999998" y="1.67" class="f">reli</text></svg><svg x="1840"><use xlink:href="#a"></use><use xlink:href="#b" x="22.996" y="0"></use><text x="0" y="1.67" class="f">#</text><text x="2.004" y="1.67" class="f">For</text><text x="6.012" y="1.67" class="f">example,</text><text x="15.029999999999998" y="1.67" class="f">to</text><text x="18.035999999999998" y="1.67" class="f">relin</text></svg><svg x="1920"><use xlink:href="#a"></use><use xlink:href="#b" x="23.996" y="0"></use><use xlink:href="#5" y="0"></use></svg><svg x="2000"><use xlink:href="#a"></use><use xlink:href="#b" x="24.996" y="0"></use><use xlink:href="#5" y="0"></use></svg><svg x="2080"><use xlink:href="#a"></use><use xlink:href="#b" x="25.996" y="0"></use><text x="0" y="1.67" class="f">#</text><text x="2.004" y="1.67" class="f">For</text><text x="6.012" y="1.67" class="f">example,</text><text x="15.029999999999998" y="1.67" class="f">to</text><text x="18.035999999999998" y="1.67" class="f">relink</text><text x="25.05" y="1.67" class="f">t</text></svg><svg x="2160"><use xlink:href="#a"></use><use xlink:href="#b" x="26.996" y="0"></use><text x="0" y="1.67" class="f">#</text><text x="2.004" y="1.67" class="f">For</text><text x="6.012" y="1.67" class="f">example,</text><text x="15.029999999999998" y="1.67" class="f">to</text><text x="18.035999999999998" y="1.67" class="f">relink</text><text x="25.05" y="1.67" class="f">th</text></svg><svg x="2240"><use xlink:href="#a"></use><use xlink:href="#b" x="27.996" y="0"></use><use xlink:href="#6" y="0"></use></svg><svg x="2320"><use xlink:href="#a"></use><use xlink:href="#b" x="28.996" y="0"></use><use xlink:href="#6" y="0"></use></svg><svg x="2400"><use xlink:href="#a"></use><use xlink:href="#b" x="29.996" y="0"></use><text x="0" y="1.67" class="f">#</text><text x="2.004" y="1.67" class="f">For</text><text x="6.012" y="1.67" class="f">example,</text><text x="15.029999999999998" y="1.67" class="f">to</text><text x="18.035999999999998" y="1.67" class="f">relink</text><text x="25.05" y="1.67" class="f">the</text><text x="29.058" y="1.67" class="f">O</text></svg><svg x="2480"><use xlink:href="#a"></use><use xlink:href="#b" x="30.996" y="0"></use><text x="0" y="1.67" class="f">#</text><text x="2.004" y="1.67" class="f">For</text><text x="6.012" y="1.67" class="f">example,</text><text x="15.029999999999998" y="1.67" class="f">to</text><text x="18.035999999999998" y="1.67" class="f">relink</text><text x="25.05" y="1.67" class="f">the</text><text x="29.058" y="1.67" class="f">Op</text></svg><svg x="2560"><use xlink:href="#a"></use><use xlink:href="#b" x="31.996" y="0"></use><text x="0" y="1.67" class="f">#</text><text x="2.004" y="1.67" class="f">For</text><text x="6.012" y="1.67" class="f">example,</text><text x="15.029999999999998" y="1.67" class="f">to</text><text x="18.035999999999998" y="1.67" class="f">relink</text><text x="25.05" y="1.67" class="f">the</text><text x="29.058" y="1.67" class="f">Ope</text></svg><svg x="2640"><use xlink:href="#a"></use><use xlink:href="#b" x="32.996" y="0"></use><text x="0" y="1.67" class="f">#</text><text x="2.004" y="1.67" class="f">For</text><text x="6.012" y="1.67" class="f">example,</text><text x="15.029999999999998" y="1.67" class="f">to</text><text x="18.035999999999998" y="1.67" class="f">relink</text><text x="25.05" y="1.67" class="f">the</text><text x="29.058" y="1.67" class="f">Open</text></svg><svg x="2720"><use xlink:href="#a"></use><use xlink:href="#b" x="33.996" y="0"></use><text x="0" y="1.67" class="f">#</text><text x="2.004" y="1.67" class="f">For</text><text x="6.012" y="1.67" class="f">example,</text><text x="15.029999999999998" y="1.67" class="f">to</text><text x="18.035999999999998" y="1.67" class="f">relink</text><text x="25.05" y="1.67" class="f">the</text><text x="29.058" y="1.67" class="f">OpenB</text></svg><svg x="2800"><use xlink:href="#a"></use><use xlink:href="#b" x="34.996" y="0"></use><text x="0" y="1.67" class="f">#</text><text x="2.004" y="1.67" class="f">For</text><text x="6.012" y="1.67" class="f">example,</text><text x="15.029999999999998" y="1.67" class="f">to</text><text x="18.035999999999998" y="1.67" class="f">relink</text><text x="25.05" y="1.67" class="f">the</text><text x="29.058" y="1.67" class="f">OpenBL</text></svg><svg x="2880"><use xlink:href="#a"></use><use xlink:href="#b" x="35.996" y="0"></use><text x="0" y="1.67" class="f">#</text><text x="2.004" y="1.67" class="f">For</text><text x="6.012" y="1.67" class="f">example,</text><text x="15.029999999999998" y="1.67" class="f">to</text><text x="18.035999999999998" y="1.67" class="f">relink</text><text x="25.05" y="1.67" class="f">the</text><text x="29.058" y="1.67" class="f">OpenBLA</text></svg><svg x="2960"><use xlink:href="#a"></use><use xlink:href="#b" x="36.996" y="0"></use><use xlink:href="#7" y="0"></use></svg><svg x="3040"><use xlink:href="#a"></use><use xlink:href="#b" x="37.996" y="0"></use><use xlink:href="#7" y="0"></use></svg><svg x="3120"><use xlink:href="#a"></use><use xlink:href="#b" x="38.996" y="0"></use><text x="0" y="1.67" class="f">#</text><text x="2.004" y="1.67" class="f">For</text><text x="6.012" y="1.67" class="f">example,</text><text x="15.029999999999998" y="1.67" class="f">to</text><text x="18.035999999999998" y="1.67" class="f">relink</text><text x="25.05" y="1.67" class="f">the</text><text x="29.058" y="1.67" class="f">OpenBLAS</text><text x="38.07599999999999" y="1.67" class="f">l</text></svg><svg x="3200"><use xlink:href="#a"></use><use xlink:href="#b" x="39.996" y="0"></use><text x="0" y="1.67" class="f">#</text><text x="2.004" y="1.67" class="f">For</text><text x="6.012" y="1.67" class="f">example,</text><text x="15.029999999999998" y="1.67" class="f">to</text><text x="18.035999999999998" y="1.67" class="f">relink</text><text x="25.05" y="1.67" class="f">the</text><text x="29.058" y="1.67" class="f">OpenBLAS</text><text x="38.07599999999999" y="1.67" class="f">li</text></svg><svg x="3280"><use xlink:href="#a"></use><use xlink:href="#b" x="40.996" y="0"></use><text x="0" y="1.67" class="f">#</text><text x="2.004" y="1.67" class="f">For</text><text x="6.012" y="1.67" class="f">example,</text><text x="15.029999999999998" y="1.67" class="f">to</text><text x="18.035999999999998" y="1.67" class="f">relink</text><text x="25.05" y="1.67" class="f">the</text><text x="29.058" y="1.67" class="f">OpenBLAS</text><text x="38.07599999999999" y="1.67" class="f">lib</text></svg><svg x="3360"><use xlink:href="#a"></use><use xlink:href="#b" x="41.996" y="0"></use><text x="0" y="1.67" class="f">#</text><text x="2.004" y="1.67" class="f">For</text><text x="6.012" y="1.67" class="f">example,</text><text x="15.029999999999998" y="1.67" class="f">to</text><text x="18.035999999999998" y="1.67" class="f">relink</text><text x="25.05" y="1.67" class="f">the</text><text x="29.058" y="1.67" class="f">OpenBLAS</text><text x="38.07599999999999" y="1.67" class="f">libr</text></svg><svg x="3440"><use xlink:href="#a"></use><use xlink:href="#b" x="42.996" y="0"></use><text x="0" y="1.67" class="f">#</text><text x="2.004" y="1.67" class="f">For</text><text x="6.012" y="1.67" class="f">example,</text><text x="15.029999999999998" y="1.67" class="f">to</text><text x="18.035999999999998" y="1.67" class="f">relink</text><text x="25.05" y="1.67" class="f">the</text><text x="29.058" y="1.67" class="f">OpenBLAS</text><text x="38.07599999999999" y="1.67" class="f">libra</text></svg><svg x="3520"><use xlink:href="#a"></use><use xlink:href="#b" x="43.996" y="0"></use><text x="0" y="1.67" class="f">#</text><text x="2.004" y="1.67" class="f">For</text><text x="6.012" y="1.67" class="f">example,</text><text x="15.029999999999998" y="1.67" class="f">to</text><text x="18.035999999999998" y="1.67" class="f">relink</text><text x="25.05" y="1.67" class="f">the</text><text x="29.058" y="1.67" class="f">OpenBLAS</text><text x="38.07599999999999" y="1.67" class="f">librar</text></svg><svg x="3600"><use xlink:href="#a"></use><use xlink:href="#b" x="44.996" y="0"></use><use xlink:href="#8" y="0"></use></svg><svg x="3680"><use xlink:href="#a"></use><use xlink:href="#b" x="45.996" y="0"></use><use xlink:href="#8" y="0"></use></svg><svg x="3760"><use xlink:href="#a"></use><use xlink:href="#b" x="46.996" y="0"></use><text x="0" y="1.67" class="f">#</text><text x="2.004" y="1.67" class="f">For</text><text x="6.012" y="1.67" class="f">example,</text><text x="15.029999999999998" y="1.67" class="f">to</text><text x="18.035999999999998" y="1.67" class="f">relink</text><text x="25.05" y="1.67" class="f">the</text><text x="29.058" y="1.67" class="f">OpenBLAS</text><text x="38.07599999999999" y="1.67" class="f">library</text><text x="46.09199999999999" y="1.67" class="f">w</text></svg><svg x="3840"><use xlink:href="#a"></use><use xlink:href="#b" x="47.996" y="0"></use><text x="0" y="1.67" class="f">#</text><text x="2.004" y="1.67" class="f">For</text><text x="6.012" y="1.67" class="f">example,</text><text x="15.029999999999998" y="1.67" class="f">to</text><text x="18.035999999999998" y="1.67" class="f">relink</text><text x="25.05" y="1.67" class="f">the</text><text x="29.058" y="1.67" class="f">OpenBLAS</text><text x="38.07599999999999" y="1.67" class="f">library</text><text x="46.09199999999999" y="1.67" class="f">wi</text></svg><svg x="3920"><use xlink:href="#a"></use><use xlink:href="#b" x="48.996" y="0"></use><text x="0" y="1.67" class="f">#</text><text x="2.004" y="1.67" class="f">For</text><text x="6.012" y="1.67" class="f">example,</text><text x="15.029999999999998" y="1.67" class="f">to</text><text x="18.035999999999998" y="1.67" class="f">relink</text><text x="25.05" y="1.67" class="f">the</text><text x="29.058" y="1.67" class="f">OpenBLAS</text><text x="38.07599999999999" y="1.67" class="f">library</text><text x="46.09199999999999" y="1.67" class="f">wit</text></svg><svg x="4000"><use xlink:href="#a"></use><use xlink:href="#b" x="49.996" y="0"></use><use xlink:href="#9" y="0"></use></svg><svg x="4080"><use xlink:href="#a"></use><use xlink:href="#b" x="50.996" y="0"></use><use xlink:href="#9" y="0"></use></svg><svg x="4160"><use xlink:href="#a"></use><use xlink:href="#b" x="51.996" y="0"></use><text x="0" y="1.67" class="f">#</text><text x="2.004" y="1.67" class="f">For</text><text x="6.012" y="1.67" class="f">example,</text><text x="15.029999999999998" y="1.67" class="f">to</text><text x="18.035999999999998" y="1.67" class="f">relink</text><text x="25.05" y="1.67" class="f">the</text><text x="29.058" y="1.67" class="f">OpenBLAS</text><text x="38.07599999999999" y="1.67" class="f">library</text><text x="46.09199999999999" y="1.67" class="f">with</text><text x="51.102" y="1.67" class="f">t</text></svg><svg x="4240"><use xlink:href="#a"></use><use xlink:href="#b" x="52.996" y="0"></use><text x="0" y="1.67" class="f">#</text><text x="2.004" y="1.67" class="f">For</text><text x="6.012" y="1.67" class="f">example,</text><text x="15.029999999999998" y="1.67" class="f">to</text><text x="18.035999999999998" y="1.67" class="f">relink</text><text x="25.05" y="1.67" class="f">the</text><text x="29.058" y="1.67" class="f">OpenBLAS</text><text x="38.07599999999999" y="1.67" class="f">library</text><text x="46.09199999999999" y="1.67" class="f">with</text><text x="51.102" y="1.67" class="f">th</text></svg><svg x="4320"><use xlink:href="#a"></use><use xlink:href="#b" x="53.996" y="0"></use><use xlink:href="#10" y="0"></use></svg><svg x="4400"><use xlink:href="#a"></use><use xlink:href="#b" x="54.996" y="0"></use><use xlink:href="#10" y="0"></use></svg><svg x="4480"><use xlink:href="#a"></use><use xlink:href="#b" x="55.996" y="0"></use><use xlink:href="#11" y="0"></use></svg><svg x="4560"><use xlink:href="#a"></use><use xlink:href="#b" x="56.996" y="0"></use><use xlink:href="#11" y="0"></use></svg><svg x="4640"><use xlink:href="#a"></use><use xlink:href="#b" x="57.996" y="0"></use><text x="0" y="1.67" class="f">#</text><text x="2.004" y="1.67" class="f">For</text><text x="6.012" y="1.67" class="f">example,</text><text x="15.029999999999998" y="1.67" class="f">to</text><text x="18.035999999999998" y="1.67" class="f">relink</text><text x="25.05" y="1.67" class="f">the</text><text x="29.058" y="1.67" class="f">OpenBLAS</text><text x="38.07599999999999" y="1.67" class="f">library</text><text x="46.09199999999999" y="1.67" class="f">with</text><text x="51.102" y="1.67" class="f">the</text><text x="55.10999999999999" y="1.67" class="f">R</text><text x="57.114" y="1.67" class="f">l</text></svg><svg x="4720"><use xlink:href="#a"></use><use xlink:href="#b" x="58.996" y="0"></use><text x="0" y="1.67" class="f">#</text><text x="2.004" y="1.67" class="f">For</text><text x="6.012" y="1.67" class="f">example,</text><text x="15.029999999999998" y="1.67" class="f">to</text><text x="18.035999999999998" y="1.67" class="f">relink</text><text x="25.05" y="1.67" class="f">the</text><text x="29.058" y="1.67" class="f">OpenBLAS</text><text x="38.07599999999999" y="1.67" class="f">library</text><text x="46.09199999999999" y="1.67" class="f">with</text><text x="51.102" y="1.67" class="f">the</text><text x="55.10999999999999" y="1.67" class="f">R</text><text x="57.114" y="1.67" class="f">la</text></svg><svg x="4800"><use xlink:href="#a"></use><use xlink:href="#b" x="59.996" y="0"></use><text x="0" y="1.67" class="f">#</text><text x="2.004" y="1.67" class="f">For</text><text x="6.012" y="1.67" class="f">example,</text><text x="15.029999999999998" y="1.67" class="f">to</text><text x="18.035999999999998" y="1.67" class="f">relink</text><text x="25.05" y="1.67" class="f">the</text><text x="29.058" y="1.67" class="f">OpenBLAS</text><text x="38.07599999999999" y="1.67" class="f">library</text><text x="46.09199999999999" y="1.67" class="f">with</text><text x="51.102" y="1.67" class="f">the</text><text x="55.10999999999999" y="1.67" class="f">R</text><text x="57.114" y="1.67" class="f">lan</text></svg><svg x="4880"><use xlink:href="#a"></use><use xlink:href="#b" x="60.996" y="0"></use><text x="0" y="1.67" class="f">#</text><text x="2.004" y="1.67" class="f">For</text><text x="6.012" y="1.67" class="f">example,</text><text x="15.029999999999998" y="1.67" class="f">to</text><text x="18.035999999999998" y="1.67" class="f">relink</text><text x="25.05" y="1.67" class="f">the</text><text x="29.058" y="1.67" class="f">OpenBLAS</text><text x="38.07599999999999" y="1.67" class="f">library</text><text x="46.09199999999999" y="1.67" class="f">with</text><text x="51.102" y="1.67" class="f">the</text><text x="55.10999999999999" y="1.67" class="f">R</text><text x="57.114" y="1.67" class="f">lang</text></svg><svg x="4960"><use xlink:href="#a"></use><use xlink:href="#b" x="61.996" y="0"></use><text x="0" y="1.67" class="f">#</text><text x="2.004" y="1.67" class="f">For</text><text x="6.012" y="1.67" class="f">example,</text><text x="15.029999999999998" y="1.67" class="f">to</text><text x="18.035999999999998" y="1.67" class="f">relink</text><text x="25.05" y="1.67" class="f">the</text><text x="29.058" y="1.67" class="f">OpenBLAS</text><text x="38.07599999999999" y="1.67" class="f">library</text><text x="46.09199999999999" y="1.67" class="f">with</text><text x="51.102" y="1.67" class="f">the</text><text x="55.10999999999999" y="1.67" class="f">R</text><text x="57.114" y="1.67" class="f">langu</text></svg><svg x="5040"><use xlink:href="#a"></use><use xlink:href="#b" x="62.996" y="0"></use><text x="0" y="1.67" class="f">#</text><text x="2.004" y="1.67" class="f">For</text><text x="6.012" y="1.67" class="f">example,</text><text x="15.029999999999998" y="1.67" class="f">to</text><text x="18.035999999999998" y="1.67" class="f">relink</text><text x="25.05" y="1.67" class="f">the</text><text x="29.058" y="1.67" class="f">OpenBLAS</text><text x="38.07599999999999" y="1.67" class="f">library</text><text x="46.09199999999999" y="1.67" class="f">with</text><text x="51.102" y="1.67" class="f">the</text><text x="55.10999999999999" y="1.67" class="f">R</text><text x="57.114" y="1.67" class="f">langua</text></svg><svg x="5120"><use xlink:href="#a"></use><use xlink:href="#b" x="63.996" y="0"></use><text x="0" y="1.67" class="f">#</text><text x="2.004" y="1.67" class="f">For</text><text x="6.012" y="1.67" class="f">example,</text><text x="15.029999999999998" y="1.67" class="f">to</text><text x="18.035999999999998" y="1.67" class="f">relink</text><text x="25.05" y="1.67" class="f">the</text><text x="29.058" y="1.67" class="f">OpenBLAS</text><text x="38.07599999999999" y="1.67" class="f">library</text><text x="46.09199999999999" y="1.67" class="f">with</text><text x="51.102" y="1.67" class="f">the</text><text x="55.10999999999999" y="1.67" class="f">R</text><text x="57.114" y="1.67" class="f">languag</text></svg><svg x="5200"><use xlink:href="#a"></use><use xlink:href="#b" x="64.996" y="0"></use><text x="0" y="1.67" class="f">#</text><text x="2.004" y="1.67" class="f">For</text><text x="6.012" y="1.67" class="f">example,</text><text x="15.029999999999998" y="1.67" class="f">to</text><text x="18.035999999999998" y="1.67" class="f">relink</text><text x="25.05" y="1.67" class="f">the</text><text x="29.058" y="1.67" class="f">OpenBLAS</text><text x="38.07599999999999" y="1.67" class="f">library</text><text x="46.09199999999999" y="1.67" class="f">with</text><text x="51.102" y="1.67" class="f">the</text><text x="55.10999999999999" y="1.67" class="f">R</text><text x="57.114" y="1.67" class="f">language</text></svg><svg x="5280"><use xlink:href="#a"></use><use xlink:href="#b" x="65.996" y="0"></use><use xlink:href="#12" y="0"></use></svg><svg x="5360"><use xlink:href="#a"></use><use xlink:href="#b" x="66.996" y="0"></use><use xlink:href="#12" y="0"></use></svg><svg x="5440"><use xlink:href="#a"></use><use xlink:href="#b" x="67.996" y="0"></use><text x="0" y="1.67" class="f">#</text><text x="2.004" y="1.67" class="f">For</text><text x="6.012" y="1.67" class="f">example,</text><text x="15.029999999999998" y="1.67" class="f">to</text><text x="18.035999999999998" y="1.67" class="f">relink</text><text x="25.05" y="1.67" class="f">the</text><text x="29.058" y="1.67" class="f">OpenBLAS</text><text x="38.07599999999999" y="1.67" class="f">library</text><text x="46.09199999999999" y="1.67" class="f">with</text><text x="51.102" y="1.67" class="f">the</text><text x="55.10999999999999" y="1.67" class="f">R</text><text x="57.114" y="1.67" class="f">language,</text><text x="67.134" y="1.67" class="f">d</text></svg><svg x="5520"><use xlink:href="#a"></use><use xlink:href="#b" x="68.996" y="0"></use><text x="0" y="1.67" class="f">#</text><text x="2.004" y="1.67" class="f">For</text><text x="6.012" y="1.67" class="f">example,</text><text x="15.029999999999998" y="1.67" class="f">to</text><text x="18.035999999999998" y="1.67" class="f">relink</text><text x="25.05" y="1.67" class="f">the</text><text x="29.058" y="1.67" class="f">OpenBLAS</text><text x="38.07599999999999" y="1.67" class="f">library</text><text x="46.09199999999999" y="1.67" class="f">with</text><text x="51.102" y="1.67" class="f">the</text><text x="55.10999999999999" y="1.67" class="f">R</text><text x="57.114" y="1.67" class="f">language,</text><text x="67.134" y="1.67" class="f">do</text></svg><svg x="5600"><use xlink:href="#a"></use><use xlink:href="#b" x="69.996" y="0"></use><use xlink:href="#13" y="0"></use></svg><svg x="5680"><use xlink:href="#a"></use><use xlink:href="#b" x="1.996" y="2.146"></use><use xlink:href="#13" y="0"></use><use xlink:href="#14" y="2.171"></use></svg><svg x="5760"><use xlink:href="#a"></use><use xlink:href="#b" x="1.996" y="4.317"></use><use xlink:href="#13" y="0"></use><use xlink:href="#14" y="2.171"></use><use xlink:href="#14" y="4.342"></use></svg><svg x="5840"><use xlink:href="#a"></use><use xlink:href="#b" x="2.996" y="4.317"></use><use xlink:href="#13" y="0"></use><use xlink:href="#14" y="2.171"></use><text x="0" y="6.012" class="f">&gt;</text><text x="2.004" y="6.012" class="f">r</text></svg><svg x="5920"><use xlink:href="#a"></use><use xlink:href="#b" x="3.996" y="4.317"></use><use xlink:href="#13" y="0"></use><use xlink:href="#14" y="2.171"></use><text x="0" y="6.012" class="f">&gt;</text><text x="2.004" y="6.012" class="f">ro</text></svg><svg x="6000"><use xlink:href="#a"></use><use xlink:href="#b" x="4.996" y="4.317"></use><use xlink:href="#13" y="0"></use><use xlink:href="#14" y="2.171"></use><text x="0" y="6.012" class="f">&gt;</text><text x="2.004" y="6.012" class="f">rop</text></svg><svg x="6080"><use xlink:href="#a"></use><use xlink:href="#b" x="5.996" y="4.317"></use><use xlink:href="#13" y="0"></use><use xlink:href="#14" y="2.171"></use><text x="0" y="6.012" class="f">&gt;</text><text x="2.004" y="6.012" class="f">rope</text></svg><svg x="6160"><use xlink:href="#a"></use><use xlink:href="#b" x="6.996" y="4.317"></use><use xlink:href="#13" y="0"></use><use xlink:href="#14" y="2.171"></use><text x="0" y="6.012" class="f">&gt;</text><text x="2.004" y="6.012" class="f">ropen</text></svg><svg x="6240"><use xlink:href="#a"></use><use xlink:href="#b" x="7.996" y="4.317"></use><use xlink:href="#13" y="0"></use><use xlink:href="#14" y="2.171"></use><text x="0" y="6.012" class="f">&gt;</text><text x="2.004" y="6.012" class="f">ropenb</text></svg><svg x="6320"><use xlink:href="#a"></use><use xlink:href="#b" x="8.996" y="4.317"></use><use xlink:href="#13" y="0"></use><use xlink:href="#14" y="2.171"></use><text x="0" y="6.012" class="f">&gt;</text><text x="2.004" y="6.012" class="f">ropenbl</text></svg><svg x="6400"><use xlink:href="#a"></use><use xlink:href="#b" x="9.996" y="4.317"></use><use xlink:href="#13" y="0"></use><use xlink:href="#14" y="2.171"></use><text x="0" y="6.012" class="f">&gt;</text><text x="2.004" y="6.012" class="f">ropenbla</text></svg><svg x="6480"><use xlink:href="#a"></use><use xlink:href="#b" x="10.996" y="4.317"></use><use xlink:href="#13" y="0"></use><use xlink:href="#14" y="2.171"></use><text x="0" y="6.012" class="f">&gt;</text><text x="2.004" y="6.012" class="f">ropenblas</text></svg><svg x="6560"><use xlink:href="#a"></use><use xlink:href="#b" x="11.996" y="4.317"></use><use xlink:href="#13" y="0"></use><use xlink:href="#14" y="2.171"></use><text x="0" y="6.012" class="f">&gt;</text><text x="2.004" y="6.012" class="f">ropenblas:</text></svg><svg x="6640"><use xlink:href="#a"></use><use xlink:href="#b" x="12.996" y="4.317"></use><use xlink:href="#13" y="0"></use><use xlink:href="#14" y="2.171"></use><text x="0" y="6.012" class="f">&gt;</text><text x="2.004" y="6.012" class="f">ropenblas::</text></svg><svg x="6720"><use xlink:href="#a"></use><use xlink:href="#b" x="13.996" y="4.317"></use><use xlink:href="#13" y="0"></use><use xlink:href="#14" y="2.171"></use><text x="0" y="6.012" class="f">&gt;</text><text x="2.004" y="6.012" class="f">ropenblas::l</text></svg><svg x="6800"><use xlink:href="#a"></use><use xlink:href="#b" x="14.996" y="4.317"></use><use xlink:href="#13" y="0"></use><use xlink:href="#14" y="2.171"></use><text x="0" y="6.012" class="f">&gt;</text><text x="2.004" y="6.012" class="f">ropenblas::li</text></svg><svg x="6880"><use xlink:href="#a"></use><use xlink:href="#b" x="15.996" y="4.317"></use><use xlink:href="#13" y="0"></use><use xlink:href="#14" y="2.171"></use><text x="0" y="6.012" class="f">&gt;</text><text x="2.004" y="6.012" class="f">ropenblas::lin</text></svg><svg x="6960"><use xlink:href="#a"></use><use xlink:href="#b" x="16.996" y="4.317"></use><use xlink:href="#13" y="0"></use><use xlink:href="#14" y="2.171"></use><text x="0" y="6.012" class="f">&gt;</text><text x="2.004" y="6.012" class="f">ropenblas::link</text></svg><svg x="7040"><use xlink:href="#a"></use><use xlink:href="#b" x="17.996" y="4.317"></use><use xlink:href="#13" y="0"></use><use xlink:href="#14" y="2.171"></use><text x="0" y="6.012" class="f">&gt;</text><text x="2.004" y="6.012" class="f">ropenblas::link_</text></svg><svg x="7120"><use xlink:href="#a"></use><use xlink:href="#b" x="18.996" y="4.317"></use><use xlink:href="#13" y="0"></use><use xlink:href="#14" y="2.171"></use><text x="0" y="6.012" class="f">&gt;</text><text x="2.004" y="6.012" class="f">ropenblas::link_a</text></svg><svg x="7200"><use xlink:href="#a"></use><use xlink:href="#b" x="19.996" y="4.317"></use><use xlink:href="#13" y="0"></use><use xlink:href="#14" y="2.171"></use><text x="0" y="6.012" class="f">&gt;</text><text x="2.004" y="6.012" class="f">ropenblas::link_ag</text></svg><svg x="7280"><use xlink:href="#a"></use><use xlink:href="#b" x="20.996" y="4.317"></use><use xlink:href="#13" y="0"></use><use xlink:href="#14" y="2.171"></use><text x="0" y="6.012" class="f">&gt;</text><text x="2.004" y="6.012" class="f">ropenblas::link_aga</text></svg><svg x="7360"><use xlink:href="#a"></use><use xlink:href="#b" x="21.996" y="4.317"></use><use xlink:href="#13" y="0"></use><use xlink:href="#14" y="2.171"></use><text x="0" y="6.012" class="f">&gt;</text><text x="2.004" y="6.012" class="f">ropenblas::link_agai</text></svg><svg x="7440"><use xlink:href="#a"></use><use xlink:href="#b" x="22.996" y="4.317"></use><use xlink:href="#13" y="0"></use><use xlink:href="#14" y="2.171"></use><text x="0" y="6.012" class="f">&gt;</text><text x="2.004" y="6.012" class="f">ropenblas::link_again</text></svg><svg x="7520"><use xlink:href="#a"></use><use xlink:href="#b" x="23.996" y="4.317"></use><use xlink:href="#13" y="0"></use><use xlink:href="#14" y="2.171"></use><text x="0" y="6.012" class="f">&gt;</text><text x="2.004" y="6.012" class="f">ropenblas::link_again(</text></svg><svg x="7600"><use xlink:href="#a"></use><use xlink:href="#b" x="24.996" y="4.317"></use><use xlink:href="#13" y="0"></use><use xlink:href="#14" y="2.171"></use><use xlink:href="#15" y="4.342"></use></svg><svg x="7680"><use xlink:href="#a"></use><use xlink:href="#b" x="25.996" y="4.317"></use><use xlink:href="#13" y="0"></use><use xlink:href="#14" y="2.171"></use><use xlink:href="#15" y="4.342"></use></svg><svg x="7760"><use xlink:href="#a"></use><use xlink:href="#b" x="-0.0040000000000000036" y="6.4879999999999995"></use><use xlink:href="#13" y="0"></use><use xlink:href="#14" y="2.171"></use><use xlink:href="#15" y="4.342"></use></svg><svg x="7840"><use xlink:href="#a"></use><use xlink:href="#b" x="-0.0040000000000000036" y="10.83"></use><use xlink:href="#13" y="0"></use><use xlink:href="#14" y="2.171"></use><use xlink:href="#15" y="4.342"></use><use xlink:href="#16" y="6.513"></use><use xlink:href="#17" y="8.684"></use></svg><svg x="7920"><use xlink:href="#a"></use><use xlink:href="#b" x="1.996" y="10.83"></use><use xlink:href="#13" y="0"></use><use xlink:href="#14" y="2.171"></use><use xlink:href="#15" y="4.342"></use><use xlink:href="#16" y="6.513"></use><use xlink:href="#17" y="8.684"></use><use xlink:href="#14" y="10.855"></use></svg><svg x="8000"><use xlink:href="#a"></use><use xlink:href="#b" x="1.996" y="10.83"></use><use xlink:href="#13" y="0"></use><use xlink:href="#14" y="2.171"></use><use xlink:href="#15" y="4.342"></use><use xlink:href="#16" y="6.513"></use><use xlink:href="#17" y="8.684"></use><use xlink:href="#14" y="10.855"></use></svg></svg></g></g></svg></svg>